<svg height="512" viewBox="0 0 512 512" width="512" xmlns="http://www.w3.org/2000/svg"><g><g><g fill="#57a4ff"><path d="m216 48-8-32h96l-9 32z"/><path d="m137.21 408.74-9.21 9.21v-18.42z"/><path d="m239.04 306.92-101.83 101.82 16.97-16.98-26.18-26.18v-15.52l77.09-77.09 16.97 16.97z"/><path d="m384 136.1v25.86l-77.08 77.08 77.08 77.08v33.94l-256-256v-4.22l14.86-14.86 130.11 130.11 90.01-90.01z"/><path d="m304 16-9 32h-79l-8-32z"/><path d="m137.21 408.74-9.21 9.21v-18.42z"/><path d="m137.21 408.74 16.97-16.98-26.18-26.18-7.76-7.76 84.85-84.85 16.97 16.97 16.98 16.98z"/><path d="m425.71 86.29-12.89 38.68-25.79-25.79z"/><path d="m271.303 153.054h127.293v48.012h-127.293z" transform="matrix(.707 -.707 .707 .707 -27.096 288.706)"/></g><g fill="none"><path d="m416.74 128.89-3.92-3.92"/><path d="m387.03 99.18-3.92-3.92"/><path d="m400.42 152.52-3.49-3.49"/><path d="m362.98 115.08-3.5-3.5"/><path d="m363.48 148.52-73.539 73.539"/></g><path d="m437.02 369.14-16.97 16.97-294.16-294.16 2.11-2.11 14.86-14.86z" fill="#57a4ff"/><g fill="none"><path d="m222.059 289.941 22.627-22.627"/><path d="m199.431 267.314 11.314-11.314"/><path d="m176.8 244.69h.01l22.62-22.63"/><path d="m154.177 222.059 11.313-11.314"/><path d="m131.549 199.431 22.628-22.627"/><path d="m108.922 176.804 11.313-11.314"/><path d="m335.196 403.078 11.314-11.313"/><path d="m312.569 380.451 22.627-22.628"/><path d="m289.941 357.823 11.314-11.313"/><path d="m267.31 335.2h.01l22.62-22.63"/><path d="m244.686 312.569 11.314-11.314"/></g></g><g fill="#004fac"><path d="m216 456h-56a8 8 0 0 0 0 16h56a8 8 0 0 0 0-16z"/><path d="m248 456h-8a8 8 0 0 0 0 16h8a8 8 0 0 0 0-16z"/><path d="m442.68 363.48-50.68-50.68v-147.53l22.4-22.4a7.953 7.953 0 0 0 1.93-3.13l16.97-50.92a8 8 0 0 0 -10.12-10.12l-31.18 10.39v-49.09a32.042 32.042 0 0 0 -32-32h-208a32.042 32.042 0 0 0 -32 32v46.53l-50.68 50.68a8 8 0 0 0 0 11.31l50.68 50.68v147.54l-39.37 39.37a32.005 32.005 0 0 0 39.37 49.9v35.99a32.042 32.042 0 0 0 32 32h208a32.042 32.042 0 0 0 32-32v-46.53l50.68-50.68a8 8 0 0 0 0-11.31zm-29.62-264.54-4.99 14.97-9.98-9.98zm-31.95 10.64 21.31 21.31-.67 2-4.32 4.32-22.64-22.64 4.32-4.32zm-74.19 118.14-5.66-5.66 67.88-67.88a8 8 0 1 0 -11.32-11.32l-67.88 67.88-5.66-5.65 79.2-79.2 22.63 22.64-7.74 7.74-.05.05zm69.08-46.45v115.53l-57.76-57.76zm-82.56-157.27-4.5 16h-66.69l-4-16zm-157.44 16a16.021 16.021 0 0 1 16-16h49.75l6.49 25.94a8 8 0 0 0 7.76 6.06h79a8 8 0 0 0 7.7-5.83l7.36-26.17h49.94a16.021 16.021 0 0 1 16 16v54.42l-3.74 1.25a7.953 7.953 0 0 0 -3.13 1.93l-96.16 96.17-124.45-124.45a8 8 0 0 0 -11.31 0l-1.21 1.21zm-21.41 380.05a16.005 16.005 0 1 1 -22.64-22.63l11.31-11.32 22.64 22.64zm-.01-45.26 5.66-5.65 22.62 22.62-5.65 5.66zm90.51-90.5 22.63 22.63-73.54 73.54-22.63-22.64zm-69.09 46.45v-115.54l57.77 57.77zm240 141.26a16.021 16.021 0 0 1 -16 16h-208a16.021 16.021 0 0 1 -16-16v-50.74l103.04-103.02 124.44 124.44a8 8 0 0 0 11.31 0l1.21-1.21zm-6.86-46.29-22.63-22.63 5.66-5.66a8 8 0 0 0 -11.32-11.31l-5.65 5.65-11.32-11.31 16.97-16.97a8 8 0 0 0 -11.31-11.31l-16.97 16.97-11.32-11.32 5.66-5.65a8 8 0 0 0 -11.31-11.32l-5.66 5.66-11.31-11.31 16.97-16.97a8 8 0 0 0 -11.32-11.32l-16.97 16.97-11.31-11.31 5.66-5.66a8 8 0 1 0 -11.32-11.31l-5.65 5.65a.035.035 0 0 1 -.02-.01l-11.3-11.3 16.97-16.97a8 8 0 0 0 -11.31-11.31l-16.97 16.97-11.29-11.29c-.01-.01-.01-.02-.02-.03l5.65-5.65a8 8 0 1 0 -11.31-11.32l-5.66 5.66-11.31-11.31 16.97-16.97a8 8 0 0 0 -11.32-11.32l-16.97 16.97-11.31-11.31 5.66-5.66a8 8 0 0 0 -11.32-11.31l-5.65 5.66-11.32-11.32 16.97-16.97a8 8 0 0 0 -11.31-11.31l-16.97 16.97-11.31-11.32 5.65-5.65a8 8 0 0 0 -11.31-11.32l-5.66 5.66-22.63-22.63 39.6-39.59 282.84 282.84zm50.91-50.92-282.84-282.84 5.65-5.66 124.43 124.43c.01.01.01.02.02.03s.02.01.03.02l16.93 16.94c.01 0 .01 0 .01.01s.01 0 .01.01l16.95 16.94c.01.01.01.02.02.03s.02.01.03.02l77.02 77.02a.234.234 0 0 0 .07.07l47.33 47.33z"/></g></g></svg>