<?xml version="1.0" encoding="iso-8859-1"?>
<!-- Generator: Adobe Illustrator 19.0.0, SVG Export Plug-In . SVG Version: 6.00 Build 0)  -->
<svg version="1.1" id="Capa_1" xmlns="http://www.w3.org/2000/svg" xmlns:xlink="http://www.w3.org/1999/xlink" x="0px" y="0px"
	 viewBox="0 0 512 512" style="enable-background:new 0 0 512 512;" xml:space="preserve">
<g>
	<g transform="translate(1 1)">
		<path style="fill:#E64C3C;" d="M472.6,123.331v108.885c0.009,2.898-1.459,5.6-3.893,7.172c-2.435,1.571-5.502,1.795-8.139,0.594
			c-21.876-9.212-45.05-14.969-68.693-17.067c-12.866-1.395-25.8-2.079-38.741-2.048v-50.859c-16.806-4.117-33.936-6.772-51.2-7.936
			c-8.875-0.597-18.091-0.939-27.477-0.939c-13.627-0.019-27.245,0.721-40.789,2.219c-26.709,2.13-52.77,9.311-76.8,21.163v-128
			c24.917-14.08,68.267-23.381,117.589-23.381c51.883,0,97.109,10.325,121.344,25.6v36.608c25.283,2.289,49.914,9.294,72.619,20.651
			C471.038,117.501,472.638,120.308,472.6,123.331z"/>
		<path style="fill:#A4C2F7;" d="M472.6,123.331v108.885c0.009,2.898-1.459,5.6-3.893,7.172c-2.435,1.571-5.502,1.795-8.139,0.594
			c-21.876-9.212-45.05-14.969-68.693-17.067c-12.866-1.395-25.8-2.079-38.741-2.048l12.373-9.899l30.293-24.235V95.341
			c20.298,2.188,40.23,6.978,59.307,14.251c4.579,1.826,9.027,3.964,13.312,6.4C471.038,117.501,472.638,120.308,472.6,123.331
			L472.6,123.331z"/>
		<path style="fill:#E3E7F2;" d="M455.533,112.323v108.885c0.009,2.898-1.459,5.6-3.893,7.172c-2.435,1.571-5.502,1.795-8.139,0.594
			c-21.876-9.212-45.05-14.969-68.693-17.067c-3.072-0.341-6.144-0.597-9.301-0.939l30.293-24.235V95.341
			c20.298,2.188,40.23,6.978,59.307,14.251C455.379,110.477,455.523,111.397,455.533,112.323L455.533,112.323z"/>
		<g>
			<path style="fill:#A4C2F7;" d="M395.8,186.733l-42.667,34.133v-50.859C368.137,173.336,382.531,178.979,395.8,186.733
				L395.8,186.733z"/>
			<path style="fill:#A4C2F7;" d="M404.333,58.733v128c-8.016-4.942-16.616-8.869-25.6-11.691V50.2
				c-4.69-2.956-9.63-5.498-14.763-7.595C378.157,45.928,391.763,51.365,404.333,58.733z"/>
		</g>
		<g>
			<path style="fill:#E3E7F2;" d="M378.733,50.2v124.843c-4.608-1.621-9.557-3.072-14.763-4.437
				c-0.768-0.171-1.536-0.427-2.304-0.597c-16.806-4.117-33.936-6.772-51.2-7.936c-8.875-0.597-18.091-0.939-27.477-0.939
				c-13.627-0.019-27.245,0.721-40.789,2.219c-26.709,2.13-52.77,9.311-76.8,21.163v-128c24.917-14.08,68.267-23.381,117.589-23.381
				c27.284-0.243,54.49,2.94,80.981,9.472C369.103,44.702,374.043,47.244,378.733,50.2z"/>
			<path style="fill:#E3E7F2;" d="M378.733,175.043v3.157c-4.69-2.956-9.63-5.498-14.763-7.595
				C369.176,171.971,374.125,173.421,378.733,175.043z"/>
			<path style="fill:#E3E7F2;" d="M148.333,7.533L148.333,7.533c9.426,0,17.067,7.641,17.067,17.067v452.267h-34.133V24.6
				C131.266,15.174,138.907,7.533,148.333,7.533z"/>
		</g>
		<g>
			<path style="fill:#A4C2F7;" d="M122.733,434.2h85.333c9.426,0,17.067,7.641,17.067,17.067V485.4H105.666v-34.133
				C105.666,441.841,113.307,434.2,122.733,434.2z"/>
			<path style="fill:#A4C2F7;" d="M80.066,468.333h170.667c9.426,0,17.067,7.641,17.067,17.067v17.067H63V485.4
				C63,475.974,70.641,468.333,80.066,468.333z"/>
		</g>
		<g>
			<path style="fill:#FFFFFF;" d="M88.6,434.2h85.333c9.426,0,17.067,7.641,17.067,17.067V485.4H71.533v-34.133
				C71.533,441.841,79.174,434.2,88.6,434.2z"/>
			<path style="fill:#FFFFFF;" d="M45.933,468.333H216.6c9.426,0,17.067,7.641,17.067,17.067v17.067h-204.8V485.4
				C28.866,475.974,36.507,468.333,45.933,468.333z"/>
		</g>
		<g>
			<path style="fill:#E3E7F2;" d="M114.2,434.2h68.267c9.426,0,17.067,7.641,17.067,17.067V485.4h-102.4v-34.133
				C97.133,441.841,104.774,434.2,114.2,434.2z"/>
			<path style="fill:#E3E7F2;" d="M71.533,468.333h153.6c9.426,0,17.067,7.641,17.067,17.067v17.067H54.466V485.4
				C54.466,475.974,62.107,468.333,71.533,468.333z"/>
		</g>
	</g>
	<g>
		<path style="fill:#428DFF;" d="M166.4,443.733h-34.133c-2.263,0.001-4.434-0.898-6.035-2.499s-2.499-3.771-2.499-6.035V25.6
			c0-14.138,11.462-25.6,25.6-25.6s25.6,11.462,25.6,25.6v409.6c0.001,2.263-0.898,4.434-2.499,6.035
			C170.834,442.835,168.663,443.734,166.4,443.733z M140.8,426.667h17.067V25.6c0-4.713-3.821-8.533-8.533-8.533
			S140.8,20.887,140.8,25.6V426.667z"/>
		<path style="fill:#428DFF;" d="M268.8,512H29.866c-2.263,0.001-4.434-0.898-6.035-2.499c-1.6-1.6-2.499-3.771-2.499-6.035V486.4
			c0.015-14.132,11.468-25.585,25.6-25.6h204.8c14.132,0.015,25.585,11.468,25.6,25.6v17.067c0.001,2.263-0.898,4.434-2.499,6.035
			C273.234,511.102,271.063,512.001,268.8,512z M38.4,494.933h221.867V486.4c-0.005-4.711-3.822-8.529-8.533-8.533h-204.8
			c-4.711,0.005-8.529,3.822-8.533,8.533V494.933z"/>
		<path style="fill:#428DFF;" d="M226.133,477.867h-153.6c-2.263,0.001-4.434-0.898-6.035-2.499s-2.499-3.771-2.499-6.035v-17.067
			c0.015-14.132,11.468-25.585,25.6-25.6h119.467c14.132,0.015,25.585,11.468,25.6,25.6v17.067c0.001,2.263-0.898,4.434-2.499,6.035
			C230.567,476.968,228.396,477.867,226.133,477.867L226.133,477.867z M81.066,460.8H217.6v-8.533
			c-0.005-4.711-3.822-8.529-8.533-8.533H89.6c-4.711,0.005-8.529,3.822-8.533,8.533V460.8z"/>
		<path style="fill:#428DFF;" d="M405.333,196.267c-1.623-0.001-3.213-0.464-4.583-1.333c-12.502-7.244-26.044-12.522-40.15-15.65
			c-16.329-4.002-32.975-6.578-49.75-7.7c-22.225-1.57-44.545-1.152-66.696,1.25c-25.573,2.012-50.535,8.84-73.571,20.125
			c-4.108,2.294-9.298,0.831-11.603-3.271c-2.306-4.101-0.858-9.295,3.237-11.613c25.032-12.401,52.19-19.937,80.033-22.208
			c23.18-2.498,46.535-2.935,69.792-1.308c17.776,1.191,35.415,3.926,52.717,8.175c10.98,2.633,21.704,6.242,32.042,10.784V64.6
			c-24.571-13.592-67.113-21.933-112.812-21.933c-46.321,0-88.708,8.325-113.388,22.275c-2.653,1.511-5.913,1.489-8.545-0.058
			c-2.633-1.548-4.237-4.384-4.207-7.438c0.03-3.054,1.69-5.858,4.352-7.354C189.329,34.758,234.858,25.6,283.987,25.6
			c52.096,0,99.158,10.058,125.896,26.917c2.48,1.561,3.985,4.286,3.983,7.217v128c0.001,2.264-0.898,4.435-2.498,6.035
			S407.597,196.268,405.333,196.267L405.333,196.267z"/>
		<path style="fill:#428DFF;" d="M355.038,83.875c-0.608,0.002-1.214-0.063-1.808-0.192c-44.717-8.784-90.694-9.002-135.492-0.642
			c-4.616,0.925-9.108-2.061-10.044-6.675c-0.935-4.613,2.041-9.113,6.652-10.059c47.108-8.814,95.463-8.58,142.483,0.692
			c4.264,0.919,7.148,4.906,6.687,9.243C363.056,80.58,359.399,83.872,355.038,83.875L355.038,83.875z"/>
		<path style="fill:#428DFF;" d="M448.008,153.6c-0.612,0.002-1.223-0.063-1.821-0.192c-13.69-2.901-27.56-4.869-41.517-5.892
			c-3.044-0.231-5.732-2.071-7.051-4.824c-1.318-2.753-1.065-6.001,0.663-8.517s4.669-3.917,7.713-3.675
			c14.729,1.087,29.368,3.167,43.817,6.225c4.258,0.927,7.134,4.914,6.671,9.247C456.02,150.306,452.366,153.594,448.008,153.6z"/>
		<path style="fill:#428DFF;" d="M473.666,250.292c-2.457-0.002-4.884-0.534-7.117-1.558c-21.056-8.798-43.34-14.307-66.071-16.333
			c-12.558-1.36-25.181-2.027-37.812-2c-4.713,0-8.533-3.821-8.533-8.533c0-4.713,3.821-8.533,8.533-8.533
			c13.256-0.028,26.504,0.673,39.683,2.1c24.558,2.177,48.625,8.18,71.329,17.792L473.6,124.342
			c-21.705-10.718-45.201-17.34-69.308-19.533c-3.025-0.372-5.621-2.33-6.812-5.135c-1.19-2.806-0.793-6.033,1.042-8.467
			c1.835-2.434,4.828-3.703,7.853-3.331c26.39,2.476,52.092,9.823,75.804,21.667c5.289,3.043,8.532,8.698,8.488,14.8v108.883
			C490.683,242.632,483.073,250.271,473.666,250.292z"/>
		<path style="fill:#428DFF;" d="M362.671,230.4c-3.626,0.002-6.857-2.287-8.058-5.708c-1.2-3.421-0.108-7.228,2.724-9.492
			l42.667-34.133c3.683-2.927,9.039-2.322,11.977,1.353c2.937,3.674,2.348,9.033-1.319,11.98l-42.667,34.133
			C366.485,229.745,364.607,230.403,362.671,230.4L362.671,230.4z"/>
		<path style="fill:#428DFF;" d="M362.666,230.4c-2.263,0.001-4.434-0.898-6.035-2.499c-1.6-1.6-2.499-3.771-2.499-6.035v-50.859
			c0-4.713,3.821-8.533,8.533-8.533c4.713,0,8.533,3.82,8.533,8.533v50.859c0.001,2.263-0.898,4.434-2.499,6.035
			C367.101,229.502,364.93,230.401,362.666,230.4z"/>
	</g>
</g>
<g>
</g>
<g>
</g>
<g>
</g>
<g>
</g>
<g>
</g>
<g>
</g>
<g>
</g>
<g>
</g>
<g>
</g>
<g>
</g>
<g>
</g>
<g>
</g>
<g>
</g>
<g>
</g>
<g>
</g>
</svg>
