<svg id="icons" enable-background="new 0 0 64 64" height="512" viewBox="0 0 64 64" width="512" xmlns="http://www.w3.org/2000/svg"><g><g><path d="m19 54.01h36.99v4h-36.99z" fill="#94c1ff"/></g><g><path d="m19 50.01h36.99v4h-36.99z" fill="#94c1ff"/></g><g><path d="m19 42.006h36.99v4h-36.99z" fill="#94c1ff"/></g><g><path d="m19 34.002h36.99v4h-36.99z" fill="#94c1ff"/></g><g><path d="m19 46.006h36.99v4h-36.99z" fill="#94c1ff"/></g><g><path d="m19 38.002h36.99v4h-36.99z" fill="#94c1ff"/></g><g><path d="m7 7.99v8 42.02h-3v-52.02h3z" fill="#d7e9ff"/></g><g><path d="m18 15.99-4 4v-4z" fill="#5c9eff"/></g><g><path d="m25 11.99-2 4 2 4h-11l4-4v-4z" fill="#5c9eff"/></g><g><path d="m18 11.99v4h-4-7v-8h11z" fill="#94c1ff"/></g><g><path d="m55.79 38c-1.01-.1-1.8-.96-1.8-1.99 0-1.109.899-2 2-2 1.109 0 2 .891 2 2 0 1.101-.891 2-2 2-.07 0-.14 0-.2-.01z" fill="#d7e9ff"/></g><g><path d="m55.99 50.01c1.109 0 2 .891 2 2 0 1.101-.891 2-2 2-.34 0-.67-.09-.95-.25-.62-.33-1.05-.99-1.05-1.75 0-1.11.9-2 2-2z" fill="#d7e9ff"/></g><g><path d="m60 30v4.01l-7.34-4-7.34-4-7.32-4-7.33 4-7.34 4-7.33 4v-4.01l22-12z" fill="#5c9eff"/></g><g><path d="m57.99 44.01c0 1.101-.891 2-2 2-.34 0-.67-.09-.95-.25-.62-.33-1.05-.99-1.05-1.75 0-1.109.899-2 2-2 1.11 0 2 .89 2 2z" fill="#d7e9ff"/></g><g><path d="m55.99 46.01c1.109 0 2 .891 2 2 0 1.101-.891 2-2 2-.34 0-.67-.09-.95-.25-.62-.33-1.05-.99-1.05-1.75 0-1.11.9-2 2-2z" fill="#d7e9ff"/></g><g><path d="m55.99 54.01c1.109 0 2 .891 2 2 0 1.101-.891 2-2 2-1.101 0-2-.899-2-2 0-1.11.9-2 2-2z" fill="#d7e9ff"/></g><g><path d="m55.99 38.01c1.109 0 2 .891 2 2 0 1.101-.891 2-2 2-.09 0-.181-.01-.271-.02-.979-.13-1.729-.971-1.729-1.98 0-1.11.9-2 2-2z" fill="#d7e9ff"/></g><g><path d="m21 36.01c0 .69-.35 1.3-.88 1.65-.32.22-.71.35-1.12.35-1.11 0-2-.899-2-2 0-1.109.89-2 2-2 1.1 0 2 .89 2 2z" fill="#d7e9ff"/></g><g><path d="m19 50.01c1.1 0 2 .891 2 2 0 .69-.35 1.3-.88 1.65-.32.22-.71.35-1.12.35-1.11 0-2-.899-2-2 0-1.11.89-2 2-2z" fill="#d7e9ff"/></g><g><path d="m19 46.01c1.1 0 2 .891 2 2 0 .69-.35 1.3-.88 1.65-.32.22-.71.35-1.12.35-1.11 0-2-.899-2-2 0-1.11.89-2 2-2z" fill="#d7e9ff"/></g><g><g><path d="m38 30.01v4h-4v-.01c0-2.14 1.68-3.89 3.8-3.99z" fill="#d7e9ff"/></g><g><path d="m38 34.01v3.99c-2.21 0-3.99-1.78-4-3.99z" fill="#d7e9ff"/></g><g><path d="m42 34v.01h-4v-4h.21c2.11.11 3.79 1.85 3.79 3.99z" fill="#d7e9ff"/></g><g><path d="m38 38v-3.99h4c-.01 2.21-1.79 3.99-4 3.99z" fill="#d7e9ff"/></g></g><g><path d="m19 38.01c1.1 0 2 .891 2 2 0 .69-.35 1.3-.88 1.65-.32.22-.71.35-1.12.35-1.11 0-2-.899-2-2 0-1.11.89-2 2-2z" fill="#d7e9ff"/></g><g><path d="m19 54.01c1.1 0 2 .891 2 2 0 1.101-.9 2-2 2-1.11 0-2-.899-2-2 0-1.11.89-2 2-2z" fill="#d7e9ff"/></g><g><g><path d="m45.32 26.01 7.34 4h-14.45c-.07-.01-.14-.01-.21-.01s-.13 0-.2.01h-14.47l7.34-4z" fill="#94c1ff"/></g></g><g><path d="m19 42.01c1.1 0 2 .891 2 2 0 .69-.35 1.3-.88 1.65-.32.22-.71.35-1.12.35-1.11 0-2-.899-2-2 0-1.11.89-2 2-2z" fill="#d7e9ff"/></g><g><g><path d="m60 34.01h-4.01-13.99v-.01c0-2.14-1.68-3.88-3.79-3.99h14.45z" fill="#94c1ff"/></g><g><path d="m38 22.01 7.32 4h-14.65z" fill="#94c1ff"/></g><g><path d="m23.33 30.01h14.47c-2.12.1-3.8 1.85-3.8 3.99v.01h-15-3z" fill="#94c1ff"/></g></g><g><path d="m42 53.98v4.03h-9v-4.03-3.99-4h9v4z" fill="#d7e9ff"/></g></g><g><g><path d="m63 59.006h-62c-.553 0-1-.447-1-1s.447-1 1-1h62c.553 0 1 .447 1 1s-.447 1-1 1z" fill="#116fff"/></g><g><g><path d="m4.002 59.006c-.553 0-1-.447-1-1v-52.012c0-.553.447-1 1-1s1 .447 1 1v52.012c0 .553-.447 1-1 1z" fill="#116fff"/></g><g><path d="m7.002 59.006c-.553 0-1-.447-1-1v-52.012c0-.553.447-1 1-1s1 .447 1 1v52.012c0 .553-.447 1-1 1z" fill="#116fff"/></g><g><path d="m7.002 6.994h-3c-.553 0-1-.447-1-1s.447-1 1-1h3c.553 0 1 .447 1 1s-.447 1-1 1z" fill="#116fff"/></g><g><path d="m18.003 16.994h-11.001c-.553 0-1-.447-1-1v-8c0-.553.447-1 1-1h11.001c.553 0 1 .447 1 1v8c0 .553-.447 1-1 1zm-10.001-2h9.001v-6h-9.001z" fill="#116fff"/></g><g><path d="m25.005 20.994h-11.001c-.553 0-1-.447-1-1v-4c0-.553.447-1 1-1s1 .447 1 1v3h8.382l-1.277-2.553c-.141-.281-.141-.613 0-.895l1.277-2.553h-5.383c-.553 0-1-.447-1-1s.447-1 1-1h7.002c.347 0 .669.18.851.475.183.295.199.663.044.973l-1.778 3.553 1.778 3.553c.155.31.139.678-.044.973-.182.294-.504.474-.851.474z" fill="#116fff"/></g><g><path d="m14.003 20.994c-.256 0-.512-.098-.707-.293-.391-.391-.391-1.023 0-1.414l4-4c.391-.391 1.023-.391 1.414 0s.391 1.023 0 1.414l-4 4c-.195.195-.451.293-.707.293z" fill="#116fff"/></g><g><path d="m55.994 59.006c-1.654 0-3-1.346-3-3s1.346-3 3-3 3 1.346 3 3-1.346 3-3 3zm0-4c-.552 0-1 .448-1 1s.448 1 1 1 1-.448 1-1-.448-1-1-1z" fill="#116fff"/></g><g><path d="m55.994 55.006c-1.654 0-3-1.346-3-3s1.346-3 3-3 3 1.346 3 3-1.346 3-3 3zm0-4c-.552 0-1 .448-1 1s.448 1 1 1 1-.448 1-1-.448-1-1-1z" fill="#116fff"/></g><g><path d="m55.994 51.006c-1.654 0-3-1.346-3-3s1.346-3 3-3 3 1.346 3 3-1.346 3-3 3zm0-4c-.552 0-1 .448-1 1s.448 1 1 1 1-.448 1-1-.448-1-1-1z" fill="#116fff"/></g><g><path d="m55.994 47.006c-1.654 0-3-1.346-3-3s1.346-3 3-3 3 1.346 3 3-1.346 3-3 3zm0-4c-.552 0-1 .448-1 1s.448 1 1 1 1-.448 1-1-.448-1-1-1z" fill="#116fff"/></g><g><path d="m55.994 43.006c-1.654 0-3-1.346-3-3s1.346-3 3-3 3 1.346 3 3-1.346 3-3 3zm0-4c-.552 0-1 .448-1 1s.448 1 1 1 1-.448 1-1-.448-1-1-1z" fill="#116fff"/></g><g><path d="m55.994 39.006c-1.654 0-3-1.346-3-3s1.346-3 3-3 3 1.346 3 3-1.346 3-3 3zm0-4c-.552 0-1 .448-1 1s.448 1 1 1 1-.448 1-1-.448-1-1-1z" fill="#116fff"/></g><g><path d="m18.998 59.006c-1.654 0-3-1.346-3-3s1.346-3 3-3 3 1.346 3 3-1.346 3-3 3zm0-4c-.552 0-1 .448-1 1s.448 1 1 1 1-.448 1-1-.448-1-1-1z" fill="#116fff"/></g><g><path d="m18.998 55.006c-1.654 0-3-1.346-3-3s1.346-3 3-3 3 1.346 3 3-1.346 3-3 3zm0-4c-.552 0-1 .448-1 1s.448 1 1 1 1-.448 1-1-.448-1-1-1z" fill="#116fff"/></g><g><path d="m18.998 51.006c-1.654 0-3-1.346-3-3s1.346-3 3-3 3 1.346 3 3-1.346 3-3 3zm0-4c-.552 0-1 .448-1 1s.448 1 1 1 1-.448 1-1-.448-1-1-1z" fill="#116fff"/></g><g><path d="m18.998 47.006c-1.654 0-3-1.346-3-3s1.346-3 3-3 3 1.346 3 3-1.346 3-3 3zm0-4c-.552 0-1 .448-1 1s.448 1 1 1 1-.448 1-1-.448-1-1-1z" fill="#116fff"/></g><g><path d="m18.998 43.006c-1.654 0-3-1.346-3-3s1.346-3 3-3 3 1.346 3 3-1.346 3-3 3zm0-4c-.552 0-1 .448-1 1s.448 1 1 1 1-.448 1-1-.448-1-1-1z" fill="#116fff"/></g><g><path d="m18.998 39.006c-1.654 0-3-1.346-3-3s1.346-3 3-3 3 1.346 3 3-1.346 3-3 3zm0-4c-.552 0-1 .448-1 1s.448 1 1 1 1-.448 1-1-.448-1-1-1z" fill="#116fff"/></g><g><path d="m59.998 35.01h-44.002c-.553 0-1-.447-1-1s.447-1 1-1h44.002c.553 0 1 .447 1 1s-.447 1-1 1z" fill="#116fff"/></g><g><path d="m52.663 31.01h-29.332c-.553 0-1-.447-1-1s.447-1 1-1h29.332c.553 0 1 .447 1 1s-.447 1-1 1z" fill="#116fff"/></g><g><path d="m45.322 27.01h-14.65c-.553 0-1-.447-1-1s.447-1 1-1h14.65c.553 0 1 .447 1 1s-.447 1-1 1z" fill="#116fff"/></g><g><path d="m55.994 38.998h-36.996c-.553 0-1-.447-1-1s.447-1 1-1h36.996c.553 0 1 .447 1 1s-.447 1-1 1z" fill="#116fff"/></g><g><path d="m55.994 42.994h-36.996c-.553 0-1-.447-1-1s.447-1 1-1h36.996c.553 0 1 .447 1 1s-.447 1-1 1z" fill="#116fff"/></g><g><path d="m32.998 46.99h-13.999c-.553 0-1-.447-1-1s.447-1 1-1h13.999c.553 0 1 .447 1 1s-.447 1-1 1z" fill="#116fff"/></g><g><path d="m32.998 50.986h-13.999c-.553 0-1-.447-1-1s.447-1 1-1h13.999c.553 0 1 .447 1 1s-.447 1-1 1z" fill="#116fff"/></g><g><path d="m32.998 54.982h-13.999c-.553 0-1-.447-1-1s.447-1 1-1h13.999c.553 0 1 .447 1 1s-.447 1-1 1z" fill="#116fff"/></g><g><path d="m55.994 46.99h-13.979c-.553 0-1-.447-1-1s.447-1 1-1h13.979c.553 0 1 .447 1 1s-.447 1-1 1z" fill="#116fff"/></g><g><path d="m55.994 50.986h-13.979c-.553 0-1-.447-1-1s.447-1 1-1h13.979c.553 0 1 .447 1 1s-.447 1-1 1z" fill="#116fff"/></g><g><path d="m55.994 54.982h-13.979c-.553 0-1-.447-1-1s.447-1 1-1h13.979c.553 0 1 .447 1 1s-.447 1-1 1z" fill="#116fff"/></g><g><g><path d="m15.997 35.01c-.354 0-.697-.188-.879-.521-.265-.484-.086-1.092.399-1.356l22.002-12c.483-.265 1.091-.086 1.356.399.265.484.086 1.092-.399 1.356l-22.002 12c-.151.083-.315.122-.477.122z" fill="#116fff"/></g><g><path d="m59.995 35.01c-.162 0-.326-.039-.478-.122l-21.998-12c-.485-.265-.664-.872-.399-1.356.265-.485.875-.664 1.356-.399l21.998 12c.485.265.664.872.399 1.356-.181.332-.523.521-.878.521z" fill="#116fff"/></g><g><path d="m15.997 31.005c-.354 0-.697-.188-.879-.521-.265-.484-.086-1.092.399-1.356l22.002-12c.483-.265 1.091-.086 1.356.399.265.484.086 1.092-.399 1.356l-22.002 12c-.151.083-.315.122-.477.122z" fill="#116fff"/></g><g><path d="m59.995 31.005c-.162 0-.326-.039-.478-.122l-21.998-12c-.485-.265-.664-.872-.399-1.356.265-.485.875-.664 1.356-.399l21.998 12c.485.265.664.872.399 1.356-.181.332-.523.521-.878.521z" fill="#116fff"/></g><g><path d="m15.996 35.01c-.553 0-1-.447-1-1v-4.005c0-.553.447-1 1-1s1 .447 1 1v4.005c0 .553-.447 1-1 1z" fill="#116fff"/></g><g><path d="m59.996 35.01c-.553 0-1-.447-1-1v-4.005c0-.553.447-1 1-1s1 .447 1 1v4.005c0 .553-.447 1-1 1z" fill="#116fff"/></g></g><g><path d="m41.998 59.006h-9c-.553 0-1-.447-1-1v-12.016c0-.553.447-1 1-1h9c.553 0 1 .447 1 1v12.016c0 .553-.447 1-1 1zm-8-2h7v-10.016h-7z" fill="#116fff"/></g><g><path d="m38 39.003c-2.757 0-5-2.243-5-5s2.243-5 5-5 5 2.243 5 5-2.243 5-5 5zm0-8c-1.654 0-3 1.346-3 3s1.346 3 3 3 3-1.346 3-3-1.346-3-3-3z" fill="#116fff"/></g><g><path d="m38 39.003c-.553 0-1-.447-1-1v-8c0-.553.447-1 1-1s1 .447 1 1v8c0 .553-.447 1-1 1z" fill="#116fff"/></g></g></g></svg>